<svg xmlns="http://www.w3.org/2000/svg" width="735" height="142" viewBox="0 0 735 142"><path d="M36.603 140c-1.372-.215-6.987-1.093-12.477-1.95C8.582 135.623 2.94 132.113.602 123.413c-2.474-9.204 2.886-18.431 12.34-21.244 4.515-1.343 8.666-1.942 8.702-1.255.007.138.849 4.3 1.87 9.25 4.31 20.887 11.823 28.437 29.158 29.302 19.915.994 32.956-8.709 33.106-24.63.108-11.55-4.83-16.509-27.58-27.701-12.804-6.3-19.671-11.932-23.125-18.97-2.91-5.928-2.679-19.282.444-25.737 4.735-9.787 13.715-16.289 26.78-19.39 5.582-1.324 9.42-1.459 22.219-.781 8.51.45 19.097.764 23.528.697l8.056-.123-2.855 16.667c-1.57 9.166-3.114 17.341-3.43 18.166-.317.825-1.192-1.421-1.944-4.992-3.122-14.811-8.084-23.206-16.034-27.127-4.003-1.975-6.358-2.38-13.81-2.376-12.92.007-21.137 4.045-25.428 12.495-2.666 5.25-3.265 9.373-2.029 13.973 1.914 7.12 6.696 11.177 23.073 19.582 24.265 12.453 30.2 19.594 30.291 36.445.04 7.326-.337 9.282-2.729 14.16-4.787 9.767-14.545 16.64-27.538 19.4-6.099 1.295-30.501 1.806-37.064.776zm98.32-.046c-13.665-1.875-19.972-8.43-18.04-18.75.901-4.813 5.722-9.249 14.537-13.377 9.208-4.313 8.632-3.801 6.696-5.943-4.432-4.907-6.079-15.628-3.243-21.121 5.152-9.982 20.95-14.775 33.965-10.305 9.366 3.217 12.075 11.835 5.8 18.454-3.324 3.507-7.752 5.88-15.529 8.322-3.168.995-5.638 2.145-5.49 2.557.148.413 4.047 5.566 8.664 11.454 7.691 9.808 8.506 10.55 9.732 8.87 1.686-2.31 1.745-8.884.09-10.194-.686-.544-2.595-1.463-4.242-2.044-2.387-.841-.465-1.048 9.483-1.019 7.828.023 11.114.302 8.82.75-5.507 1.074-8.31 3.39-11.705 9.67l-3.08 5.696 5.503 6.823c3.75 4.65 6.529 7.12 8.722 7.755 2.495.722.722.952-7.888 1.022l-11.106.09-12.768-16.5c-7.023-9.075-13.278-16.5-13.902-16.5-.623 0-2.546 1.463-4.273 3.25-8.995 9.312-8.193 24.361 1.515 28.425 4.997 2.092 12.956 1.198 18.882-2.12 2.538-1.421 4.816-2.383 5.061-2.137 1.033 1.036-10.004 5.583-15.86 6.535-3.493.568-6.575.968-6.85.89-.274-.078-1.846-.327-3.493-.553zm24.058-45.52c11.69-8.267 11.673-24.777-.026-24.766-9.898.009-16.187 9.92-12.484 19.677 1.655 4.36 5.897 9.446 7.233 8.67.65-.377 3.025-1.989 5.277-3.581zM386.4 139.346c-5.3-4.744-5.144-8.434 1.367-32.339 3.073-11.285 5.588-21.422 5.588-22.527 0-3.495-2.754-6.238-6.982-6.953-4.328-.733-4.505-1.133-2.956-6.72 3.029-10.925 14.91-15.874 25.627-10.676 4.95 2.401 8.745 8.461 8.007 12.787-.245 1.434-3.691 15.4-7.659 31.035-5.83 22.976-7.01 28.872-6.156 30.75 1.331 2.928 4.955 3.021 10.98.283 7.58-3.446 5.613-1.328-2.496 2.688-6.327 3.132-9.048 3.897-14.917 4.194-6.747.341-7.374.19-10.403-2.522zm65.177.805c-2.29-1.077-4.87-3.037-5.734-4.356-3.533-5.402-3.107-9.827 3.813-39.605 3.621-15.585 6.584-28.747 6.584-29.25 0-.503-2.695-.914-5.989-.914-3.327 0-5.99-.445-5.99-1 0-.563 2.79-1 6.373-1 7.085 0 7.56-.512 7.589-8.179.016-4.404-1.844-6.517-6.507-7.393-2.92-.549-3.458-1.064-3.44-3.29.036-4.241 3.469-10.643 7.1-13.237 2.893-2.068 4.5-2.401 11.575-2.401 7.85 0 8.353.137 11.298 3.088 4.632 4.64 5.091 8.517 2.313 19.526-1.299 5.15-2.362 9.93-2.362 10.624 0 .94 2.808 1.262 10.98 1.262 6.654 0 10.98.394 10.98 1 0 .608-4.456 1-11.371 1-11.224 0-11.379.031-11.983 2.442-5.036 20.104-12.837 56.042-12.87 59.295-.058 5.631 2.322 8.263 7.471 8.263 4.474 0 10.204-2.672 15.25-7.11 1.936-1.704 3.521-2.639 3.521-2.079 0 1.496-11.758 10.154-16.953 12.483-6.506 2.916-16.403 3.296-21.648.83zm63.943.956c-3.87-1.68-6.377-5.993-6.375-10.966.001-2.538 4.943-26.122 10.98-52.407 6.038-26.286 10.978-48.812 10.978-50.06 0-3.383-2.177-5.734-6.038-6.519-2.971-.604-3.487-1.142-3.757-3.916-.402-4.127 3.243-10.72 7.262-13.134 4.588-2.757 8.206-3.287 14.087-2.064 6.482 1.348 10.978 5.19 11.912 10.18.5 2.67-2.54 17.546-12.4 60.656-7.184 31.416-13.062 57.993-13.062 59.062 0 5.015 5.22 6.028 12.32 2.393 1.561-.8 3.087-1.205 3.39-.9.304.304-2.886 2.19-7.09 4.19-8.026 3.818-17.878 5.365-22.207 3.485zm68.154-.753c-10.875-3.771-18.462-14.513-19.402-27.467-2.225-30.679 30.624-57.287 60.953-49.373 10.77 2.81 17.674 9.84 17.674 17.997 0 13.43-13.574 19.954-41.599 19.994l-14.148.02-.575 2.876c-1.785 8.935.384 21.762 4.586 27.113 4.697 5.983 14.334 7.992 23.503 4.902 5.618-1.894 16.204-9.177 19.071-13.12 1.107-1.522 2.285-2.493 2.62-2.158 1.38 1.382-13.01 13.265-20.214 16.693-6.719 3.196-8.393 3.565-17.536 3.865-7.555.248-11.327-.09-14.933-1.342zm18.5-41.453c13.895-2.953 21.76-11.221 21.76-22.875 0-13.374-10.775-16.762-21.579-6.785-4.747 4.384-11.126 16.22-13.761 25.535l-1.485 5.25h4.888c2.688 0 7.268-.506 10.177-1.125zm59.085 40.41c2.033-6.61 11.585-50.882 11.585-53.697 0-4.025-2.805-6.588-7.21-6.588-2.364 0-2.768-.405-2.75-2.75.032-3.987 3.29-10.568 6.471-13.075 5.882-4.636 13.303-4.987 20.548-.972 6.456 3.577 8.51 10.082 5.934 18.79-1.698 5.743-1.226 5.616 2.898-.777 7.606-11.789 14.81-17.216 22.853-17.216 10.42 0 15.601 13.383 8.093 20.905-7.24 7.253-18.096 3.024-19.84-7.729l-.593-3.65-4.858 4.485c-8.382 7.74-10.445 12.626-16.65 39.437l-5.566 24.052-10.732.284c-9.91.263-10.69.148-10.183-1.5zm-463.206-.383c16.642-2.436 21.201-10.017 36.626-60.902 10.758-35.493 11.449-44.29 3.841-48.926-1.738-1.059-5.369-2.23-8.067-2.602-4.886-.673-4.903-.688-4.228-3.824 1.22-5.665 4.392-10.596 8.616-13.397 3.556-2.358 5.171-2.751 11.288-2.751 6.244 0 7.587.343 10.727 2.743 2.05 1.566 4.627 4.997 6.008 8 1.33 2.891 7.09 24.921 12.802 48.956 5.712 24.034 10.693 43.384 11.068 43 .376-.385 12.531-19.374 27.012-42.2l26.328-41.5 18.405-.15c17.196-.142 18.05-.065 12.999 1.179-6.652 1.637-9.899 3.957-12.79 9.14-2.675 4.793-17.238 81.992-17.238 91.376 0 7.393 2.433 10.609 8.983 11.871 2.971.572-5.142.866-23.956.866-18.461 0-26.925-.3-24.11-.855 2.387-.47 5.756-1.682 7.487-2.692 6.161-3.595 7.329-7.44 14.734-48.542 3.784-21.006 7.275-40.365 7.756-43.02.482-2.655.52-4.455.084-4-.436.455-14.13 21.753-30.432 47.328-16.301 25.575-30.213 47.108-30.914 47.85-1.042 1.105-3.34-7.046-12.617-44.74-6.239-25.35-11.605-46.095-11.926-46.1-.321-.005-3.413 9.552-6.871 21.24-14.23 48.095-16.892 63.95-11.623 69.229 1.312 1.313 4.119 2.673 6.239 3.021 2.12.348 4.528.776 5.352.95.823.175-9.508.315-22.958.312-17.415-.004-22.777-.252-18.625-.86z"/></svg>