<svg xmlns="http://www.w3.org/2000/svg" viewBox="0 0 607.75281 283.25656" height="283.257" width="607.753"><path d="M304.004 279.425c-4.56-9.7-42.358-81.195-42.947-81.233-.365-.024-9.082 8.616-19.372 19.198l-18.707 19.242-110.467-.93c-60.756-.511-110.926-1.214-111.489-1.561C.352 233.726 0 211.908 0 170.603v-62.906l11.376-4.231c6.257-2.328 71.83-26.56 145.717-53.849L291.433 0l38.582 13.282c21.22 7.305 44.269 15.241 51.221 17.637 6.952 2.396 28.681 9.833 48.286 16.528l35.647 12.172v-37.34h40.449V73.413l7.837 2.664c4.31 1.466 26.67 9.06 49.69 16.877 23.019 7.817 42.093 14.453 42.388 14.747.294.294-37.425.499-83.82.455-46.394-.044-83.898-.267-83.342-.495.556-.228 16.91-3.616 36.343-7.527 19.433-3.912 35.482-7.263 35.665-7.446.741-.74-20.248-9.525-113.922-47.68C342.554 23.052 297.42 5.09 296.158 5.09c-1.261 0-11.19 3.233-22.063 7.184-25.328 9.205-239.534 88.404-262.213 96.95l-5.815 2.19v113.114h212.849l22.47-22.454c12.36-12.35 22.692-22.232 22.962-21.962.27.27 10.126 18.906 21.902 41.414 11.777 22.508 21.768 41.311 22.202 41.786.435.474 9.396-7.83 19.914-18.455l19.123-19.318h260.264v9.788l-27.468.668c-15.107.367-72.554.668-127.66.668H352.432l-23.314 23.297-23.313 23.298-1.8-3.832zm119.704-94.336v-38.427h13.146v3.54c0 4.19.851 4.41 4.021 1.036 3.285-3.497 10.268-5.972 15.04-5.332 13.486 1.81 21.291 13.884 20.11 31.109-1.607 23.45-18.671 33.256-35.885 20.62l-2.275-1.67V223.517H423.707v-38.427zm31.935 4.913c7.806-3.81 8.614-23.493 1.22-29.716-5.133-4.318-14.174-2.683-16.778 3.033-1.689 3.706-1.551 18.174.205 21.57 3.433 6.639 8.66 8.38 15.353 5.113zM41.13 201.911c-6.782-1.918-12.654-6.322-17.093-12.818-5.277-7.723-7.214-16.104-6.613-28.6.437-9.073.82-10.602 4.421-17.666 6.715-13.172 15.35-17.951 32.257-17.855 7.791.044 9.931.452 14.868 2.831 7.226 3.484 14.118 11 17.104 18.655 1.84 4.713 2.262 7.887 2.318 17.395.06 10.017-.268 12.47-2.36 17.696-3.09 7.722-12.918 17.96-18.842 19.627-6.673 1.878-20.626 2.271-26.06.735zm19.325-13.337c8.696-3.632 12.63-11.315 12.609-24.624-.017-10.437-1.677-15.916-6.189-20.427-7.208-7.208-18.708-7.75-26.437-1.246-4.8 4.038-7.21 9.75-7.81 18.51-.931 13.587 3.495 23.444 12.331 27.457 5.028 2.284 10.538 2.401 15.496.33zm259.432 13.805c-19.276-4.943-28.973-28.596-21.96-53.562 2.711-9.647 9.193-17.498 17.58-21.29 3.564-1.611 6.694-2.062 14.442-2.079 10.522-.024 14.712 1.098 20.452 5.476 3.136 2.392 10.301 14.363 9.235 15.429-.308.308-3.406 1.217-6.885 2.02l-6.325 1.462-2.033-2.85c-5.003-7.016-9.265-9.424-16.68-9.424-3.68 0-11.746 5.277-13.628 8.916-2.575 4.98-3.764 15.403-2.651 23.246 1.728 12.188 4.152 16.093 11.801 19.014 6.785 2.591 12.123 1.458 16.813-3.57 2.1-2.251 4.102-5.513 4.45-7.25.577-2.888.903-3.113 3.826-2.639 6.007.975 10.666 3.489 10.666 5.754 0 6.116-7.907 15.995-15.414 19.259-5.75 2.5-17.906 3.571-23.689 2.088zm184.018-.195c-5.314-1.268-14.068-8.931-16.619-14.546-2.84-6.25-2.59-19.719.488-26.313 8.47-18.15 34.304-20.993 46.324-5.098 4.733 6.26 6.301 11.925 5.685 20.54-.724 10.112-5.513 18.396-13.259 22.936-5 2.93-15.783 4.113-22.62 2.481zm13.42-11.933c9.737-4.422 11.39-21.892 2.786-29.446-8.826-7.75-20.56-.088-20.56 13.427 0 6.806 2.08 12.073 5.794 14.673 5.28 3.698 6.5 3.835 11.98 1.346zm-416.2-26.429V125.11l21.804.604c19.315.534 22.304.845 26.18 2.721 11.188 5.416 13.647 19.763 5.023 29.308l-3.512 3.888 3.6 2.225c5.766 3.564 8.59 8.577 8.59 15.25 0 7.294-1.513 11.72-5.445 15.929-5.926 6.343-6.907 6.554-32.73 7.049l-23.51.45v-38.712zm44.187 21.84c2.154-2.504 2.47-3.678 2.035-7.544-.855-7.586-3.669-8.733-23.217-9.462l-7.837-.292v20.973l13.234-.355c13.201-.353 13.241-.361 15.785-3.32zm-4.507-31.074c.968-.5 2.482-2.306 3.366-4.015 1.33-2.57 1.395-3.621.377-6.078-2.14-5.165-4.295-5.923-16.85-5.923h-11.405v18.311l11.377-.694c6.257-.381 12.168-1.102 13.135-1.6zm35.151 9.265v-38.427h15.169v16.18c0 14.01.212 16.18 1.583 16.18 3.705 0 5.961-2.758 11.035-13.49 7.293-15.424 11.405-18.87 22.515-18.87h4.305V136.549h-3.483c-4.984 0-8.2 3.311-11.757 12.1-1.68 4.152-4.185 9.032-5.568 10.845l-2.514 3.296 3.953 3.57c4.242 3.833 18.358 29.813 18.358 33.789 0 1.984-.54 2.13-7.869 2.13h-7.869l-5.457-11.726c-3.001-6.45-6.77-13.71-8.374-16.132-3.153-4.76-6.53-6.608-7.958-4.356-.478.754-.876 8.312-.885 16.793l-.015 15.422h-15.169v-38.427zm208.315 16.685v-21.741h-6.996c-9.86 0-10.195-.22-10.195-6.682v-5.453h48.539v11.042l-8.343.293-8.342.294-.273 21.994-.272 21.995H384.27v-21.742zm167.09-5.814l.27-27.557 6.825-.299 6.826-.299v16.868c0 19.747-1.301 19.94 12.566-1.86 8.305-13.056 9.04-13.905 12.044-13.915 1.76-.006 4.905-.293 6.991-.638l3.792-.627V202.28h-13.099l-.276-17.444-.277-17.444-11.007 17.444-11.007 17.444h-13.917l.27-27.556zm20.968-36.147c-1.408-.398-3.608-1.358-4.888-2.134-2.448-1.484-6.204-7.823-6.204-10.471 0-2.076 4.57-2.052 6.28.032 4.107 5.005 4.93 5.49 9.343 5.49 3.965 0 4.823-.426 7.238-3.592 2.094-2.745 3.356-3.52 5.36-3.286 2.112.245 2.568.782 2.348 2.764-.35 3.145-4.837 9.056-7.663 10.095-3.682 1.353-9.127 1.861-11.814 1.102z" fill="#414e5b"/></svg>